<?xml version="1.0" encoding="UTF-8"?>
<svg id="Layer_2" data-name="Layer 2" xmlns="http://www.w3.org/2000/svg" viewBox="0 0 792 655">
  <defs>
    <style>
      .cls-1 {
        fill: #e0e0e0;
      }

      .cls-1, .cls-2, .cls-3 {
        stroke-width: 0px;
      }

      .cls-2 {
        fill: #c9c9c9;
      }

      .cls-3 {
        fill: #131313;
      }
    </style>
  </defs>
  <g id="Layer_1-2" data-name="Layer 1">
    <path class="cls-2" d="m792,62v33c0-16.02-12.98-29-29-29h-470c-8.01,0-15.26,3.24-20.51,8.49s-8.49,12.5-8.49,20.51H0v-61.9C0,14.82,14.82,0,33.1,0h197.8c18.25,0,33.05,14.77,33.1,33h499c16.02,0,29,12.98,29,29Z"/>
    <path class="cls-1" d="m792,95v477.32c0,45.66-37.02,82.68-82.68,82.68H82.68c-45.66,0-82.68-37.02-82.68-82.68V95h264c0-8.01,3.24-15.26,8.49-20.51s12.5-8.49,20.51-8.49h470c16.02,0,29,12.98,29,29Z"/>
    <rect class="cls-3" x="15.5" y="11.5" width="135" height="72" rx="36" ry="36"/>
    <g>
      <path class="cls-2" d="m53.87,53.42v18.18h-9.09V23.4h18.87c2.48,0,4.64.4,6.47,1.21,1.83.8,3.36,1.86,4.58,3.17,1.22,1.31,2.13,2.8,2.75,4.48.62,1.68.93,3.39.93,5.13v1.65c0,1.79-.31,3.55-.93,5.27-.62,1.72-1.54,3.26-2.75,4.61-1.22,1.35-2.74,2.44-4.58,3.27-1.84.83-3.99,1.24-6.47,1.24h-9.78Zm0-8.68h8.88c2.02,0,3.62-.55,4.79-1.65,1.17-1.1,1.76-2.52,1.76-4.27v-.83c0-1.74-.58-3.17-1.76-4.27-1.17-1.1-2.77-1.65-4.79-1.65h-8.88v12.67Z"/>
      <path class="cls-2" d="m120.32,62.93v8.68h-33.88v-9.5c0-2.52.38-4.68,1.14-6.47.76-1.79,1.84-3.31,3.24-4.54,1.4-1.24,3.09-2.26,5.06-3.06,1.97-.8,4.2-1.48,6.68-2.03,1.84-.41,3.34-.88,4.51-1.41,1.17-.53,2.1-1.12,2.79-1.79.69-.67,1.16-1.4,1.41-2.2.25-.8.38-1.71.38-2.72,0-1.93-.7-3.53-2.1-4.82-1.4-1.29-3.34-1.93-5.82-1.93-2.62,0-4.71.79-6.27,2.38s-2.34,3.78-2.34,6.58v3.03h-9.09v-3.86c0-2.25.4-4.39,1.21-6.44.8-2.04,1.95-3.83,3.44-5.37,1.49-1.54,3.32-2.75,5.47-3.65,2.16-.9,4.59-1.34,7.3-1.34,2.89,0,5.42.42,7.58,1.27,2.16.85,3.96,1.96,5.41,3.34,1.45,1.38,2.52,2.97,3.24,4.79.71,1.81,1.07,3.68,1.07,5.61v.83c0,4.04-1.14,7.39-3.41,10.05-2.27,2.66-5.98,4.59-11.12,5.79-2.16.51-3.94,1.02-5.34,1.55-1.4.53-2.49,1.11-3.27,1.76-.78.64-1.32,1.34-1.62,2.1-.3.76-.45,1.62-.45,2.58v.83h24.79Z"/>
    </g>
  </g>
</svg>