<?xml version="1.0" encoding="UTF-8"?>
<svg id="Layer_2" data-name="Layer 2" xmlns="http://www.w3.org/2000/svg" viewBox="0 0 792 655">
  <defs>
    <style>
      .cls-1 {
        fill: #e0e0e0;
      }

      .cls-1, .cls-2, .cls-3 {
        stroke-width: 0px;
      }

      .cls-2 {
        fill: #c9c9c9;
      }

      .cls-3 {
        fill: #131313;
      }
    </style>
  </defs>
  <g id="Layer_1-2" data-name="Layer 1">
    <path class="cls-2" d="m792,62v33c0-16.02-12.98-29-29-29h-470c-8.01,0-15.26,3.24-20.51,8.49s-8.49,12.5-8.49,20.51H0v-61.9C0,14.82,14.82,0,33.1,0h197.8c18.25,0,33.05,14.77,33.1,33h499c16.02,0,29,12.98,29,29Z"/>
    <path class="cls-1" d="m792,95v477.32c0,45.66-37.02,82.68-82.68,82.68H82.68c-45.66,0-82.68-37.02-82.68-82.68V95h264c0-8.01,3.24-15.26,8.49-20.51s12.5-8.49,20.51-8.49h470c16.02,0,29,12.98,29,29Z"/>
    <rect class="cls-3" x="15.5" y="11.5" width="135" height="72" rx="36" ry="36"/>
    <g>
      <path class="cls-2" d="m53.87,53.42v18.18h-9.09V23.4h18.87c2.48,0,4.64.4,6.47,1.21,1.83.8,3.36,1.86,4.58,3.17,1.22,1.31,2.13,2.8,2.75,4.48.62,1.68.93,3.39.93,5.13v1.65c0,1.79-.31,3.55-.93,5.27-.62,1.72-1.54,3.26-2.75,4.61-1.22,1.35-2.74,2.44-4.58,3.27-1.84.83-3.99,1.24-6.47,1.24h-9.78Zm0-8.68h8.88c2.02,0,3.62-.55,4.79-1.65,1.17-1.1,1.76-2.52,1.76-4.27v-.83c0-1.74-.58-3.17-1.76-4.27-1.17-1.1-2.77-1.65-4.79-1.65h-8.88v12.67Z"/>
      <path class="cls-2" d="m98.36,50.94v-14.32l11.98-3.31v-1.24h-23.96v-8.68h31.4v15.15l-12.81,3.72v1.24h1.65c1.7,0,3.37.26,5.03.79,1.65.53,3.11,1.34,4.37,2.45,1.26,1.1,2.28,2.47,3.06,4.1.78,1.63,1.17,3.55,1.17,5.75v.83c0,2.16-.36,4.16-1.07,5.99-.71,1.84-1.77,3.43-3.17,4.79-1.4,1.35-3.13,2.42-5.2,3.2-2.07.78-4.43,1.17-7.09,1.17s-5.16-.44-7.37-1.31c-2.2-.87-4.08-2.07-5.61-3.58-1.54-1.51-2.72-3.26-3.55-5.23-.83-1.97-1.24-4.06-1.24-6.27v-2.89h9.09v2.48c0,2.2.71,4.11,2.13,5.72,1.42,1.61,3.56,2.41,6.4,2.41,2.43,0,4.3-.62,5.61-1.86s1.96-2.87,1.96-4.89c0-2.16-.7-3.73-2.1-4.72-1.4-.99-3.18-1.48-5.34-1.48h-5.37Z"/>
    </g>
  </g>
</svg>